HIERARCHY
ROOT Hips
{
 OFFSET 0.000000 0.000000 0.000000
 CHANNELS 6 Xposition Yposition Zposition Yrotation Xrotation Zrotation
 JOINT Chest
 {
  OFFSET 0.000000 9.585900 0.002600
  CHANNELS 3 Yrotation Xrotation Zrotation
  JOINT Chest2
  {
   OFFSET 0.000000 9.601200 -0.005300
   CHANNELS 3 Yrotation Xrotation Zrotation
   JOINT Chest3
   {
    OFFSET 0.000000 9.561800 0.000000
    CHANNELS 3 Yrotation Xrotation Zrotation
    JOINT Chest4
    {
     OFFSET 0.000000 9.552100 0.000000
     CHANNELS 3 Yrotation Xrotation Zrotation
     JOINT Neck
     {
      OFFSET 0.000000 14.453000 0.000000
      CHANNELS 3 Yrotation Xrotation Zrotation
      JOINT Head
      {
       OFFSET 0.000000 8.936500 -0.011300
       CHANNELS 3 Yrotation Xrotation Zrotation
       End Site
       {
        OFFSET 0.000000 17.073600 -0.006000
       }
      }
     }
     JOINT RightCollar
     {
      OFFSET -2.921100 9.558500 0.000000
      CHANNELS 3 Yrotation Xrotation Zrotation
      JOINT RightShoulder
      {
       OFFSET -13.519700 0.000000 0.000000
       CHANNELS 3 Yrotation Xrotation Zrotation
       JOINT RightElbow
       {
        OFFSET 0.000000 -29.696600 0.000000
        CHANNELS 3 Yrotation Xrotation Zrotation
        JOINT RightWrist
        {
         OFFSET 0.000000 -24.004700 0.000000
         CHANNELS 3 Yrotation Xrotation Zrotation
         End Site
         {
          OFFSET 0.000000 -17.728500 0.000000
         }
        }
       }
      }
     }
     JOINT LeftCollar
     {
      OFFSET 2.921100 9.558500 0.000000
      CHANNELS 3 Yrotation Xrotation Zrotation
      JOINT LeftShoulder
      {
       OFFSET 13.519700 0.000000 0.000000
       CHANNELS 3 Yrotation Xrotation Zrotation
       JOINT LeftElbow
       {
        OFFSET 0.000000 -29.696600 0.000000
        CHANNELS 3 Yrotation Xrotation Zrotation
        JOINT LeftWrist
        {
         OFFSET 0.000000 -24.004700 0.000000
         CHANNELS 3 Yrotation Xrotation Zrotation
         End Site
         {
          OFFSET 0.000000 -17.728500 0.000000
         }
        }
       }
      }
     }
    }
   }
  }
 }
 JOINT RightHip
 {
  OFFSET -7.771700 -0.012900 -0.001300
  CHANNELS 3 Yrotation Xrotation Zrotation
  JOINT RightKnee
  {
   OFFSET 0.000000 -40.869800 0.001200
   CHANNELS 3 Yrotation Xrotation Zrotation
   JOINT RightAnkle
   {
    OFFSET 0.000000 -39.717900 0.002100
    CHANNELS 3 Yrotation Xrotation Zrotation
    JOINT RightToe
    {
     OFFSET 0.000000 -4.965400 11.033500
     CHANNELS 3 Yrotation Xrotation Zrotation
     End Site
     {
      OFFSET 0.000000 -1.423100 5.872300
     }
    }
   }
  }
 }
 JOINT LeftHip
 {
  OFFSET 7.771700 -0.012900 -0.001300
  CHANNELS 3 Yrotation Xrotation Zrotation
  JOINT LeftKnee
  {
   OFFSET 0.000000 -40.869800 0.001200
   CHANNELS 3 Yrotation Xrotation Zrotation
   JOINT LeftAnkle
   {
    OFFSET 0.000000 -39.717900 0.002100
    CHANNELS 3 Yrotation Xrotation Zrotation
    JOINT LeftToe
    {
     OFFSET 0.000000 -4.965400 11.033500
     CHANNELS 3 Yrotation Xrotation Zrotation
     End Site
     {
      OFFSET 0.000000 -1.423100 5.872300
     }
    }
   }
  }
 }
}
MOTION
Frames: 7
Frame Time: 0.008333
0.000000 85.388000 0.000000 0.000000 -5.767877 0.000000 0.000000 11.653817 0.000000 0.000000 -5.885947 0.000000 0.000000 -0.000000 0.000000 0.000000 -0.000000 0.000000 0.000000 12.528835 0.000000 0.000000 0.711642 0.000000 0.000000 -0.000000 0.000000 0.000000 0.000000 -90.000000 0.000000 -2.309062 0.000000 0.000000 2.309062 0.000000 0.000000 -0.000000 0.000000 0.000000 -0.000000 90.000000 0.000000 -2.309062 0.000000 0.000000 2.309062 0.000000 0.000000 8.520406 0.000000 0.000000 1.905762 0.000000 -0.000000 -4.658285 0.000000 0.000000 -0.000000 0.000000 0.000000 8.520406 0.000000 0.000000 1.905762 0.000000 -0.000000 -4.658285 0.000000 0.000000 -0.000000 0.000000
-166.855139 49.161378 17.499181 174.735169 -33.297243 -4.102528 0.230349 18.837828 2.226657 -0.007927 2.209638 0.229076 -0.008247 3.647250 0.378161 0.140332 16.410976 1.729256 1.890999 20.173744 0.521374 3.547036 1.739508 0.316947 -2.531724 -1.940062 -1.592435 5.863623 -9.338696 -13.583985 -34.954401 -41.742224 87.637360 3.258059 5.460850 -14.328140 -1.161951 -2.890157 1.691011 -7.024136 -2.711472 13.475559 66.655496 -71.830638 -103.465939 3.213807 8.549043 6.339953 -0.191867 -51.814323 -5.058284 179.558772 83.714337 -168.355593 -29.396296 -1.726897 -3.275386 -0.137302 -11.706353 1.416297 -13.746817 -53.187708 20.840126 -74.438786 65.744365 -79.317501 30.917774 7.397128 15.644272 -0.117025 -0.488208 -0.058552
-166.847703 49.161625 17.499285 174.734475 -33.319497 -4.092519 0.240913 18.826856 2.222710 -0.007558 2.209647 0.229300 -0.011200 3.656069 0.377847 0.164452 16.370022 1.735768 2.039966 20.238513 0.518621 3.631395 1.800332 0.318187 -2.537496 -1.933769 -1.508571 5.836784 -9.301959 -13.653492 -34.996634 -41.836967 87.629041 3.260596 5.471930 -14.291353 -1.218931 -2.885451 1.699955 -7.058996 -2.715817 13.463933 66.556253 -71.823914 -103.334142 3.221392 8.566073 6.348330 -0.233825 -51.791592 -5.042373 179.340294 83.717351 -168.583818 -29.410142 -1.736613 -3.308960 -0.137419 -11.711948 1.429600 -13.725735 -53.168185 20.820325 -74.439650 65.744387 -79.322863 30.936385 7.389572 15.653926 -0.133711 -0.488608 -0.062018
-166.840315 49.161516 17.498801 174.745692 -33.346233 -4.076608 0.237427 18.817911 2.206092 -0.009711 2.219581 0.228325 -0.018200 3.674020 0.376754 0.169510 16.361384 1.737039 2.157093 20.257647 0.513566 3.762332 1.867818 0.299477 -2.529053 -1.944052 -1.465068 5.813823 -9.316542 -13.684547 -35.030830 -41.918085 87.611679 3.270457 5.484853 -14.241937 -1.251592 -2.942639 1.707239 -7.094291 -2.715196 13.457446 66.474738 -71.819514 -103.211810 3.143651 8.602266 6.303811 -0.345491 -51.767983 -4.991394 179.227243 83.717770 -168.743915 -29.432205 -1.750881 -3.363335 -0.141017 -11.719067 1.459455 -13.695576 -53.146533 20.779230 -74.422558 65.746213 -79.313991 30.957493 7.392994 15.676304 -0.154847 -0.496716 -0.071516
-166.832974 49.164037 17.493046 174.782874 -33.409092 -4.061257 0.208950 18.845012 2.175508 -0.017347 2.248123 0.225365 -0.007363 3.647749 0.378699 0.161888 16.379644 1.736340 2.198412 20.275875 0.512657 3.957271 1.948601 0.254729 -2.518574 -1.945339 -1.423204 5.787751 -9.356593 -13.716016 -35.058343 -41.977098 87.588814 3.287620 5.501940 -14.181436 -1.276176 -2.983148 1.710064 -7.136532 -2.741799 13.462293 66.536549 -71.856934 -103.246980 3.160978 8.668478 6.308626 -0.407146 -51.698455 -5.005480 179.071642 83.708069 -168.919224 -29.423185 -1.775269 -3.411549 -0.141190 -11.725988 1.487531 -13.655711 -53.089731 20.710017 -74.396114 65.739991 -79.309292 30.986590 7.404353 15.713811 -0.180199 -0.516345 -0.083095
-166.820866 49.164315 17.490728 174.799226 -33.452996 -4.055695 0.202906 18.853010 2.167458 -0.018572 2.246047 0.225359 -0.007488 3.648254 0.378526 0.161713 16.380868 1.735298 2.301962 20.324341 0.512837 4.081009 2.028764 0.239891 -2.519712 -1.915392 -1.403806 5.771092 -9.407353 -13.736088 -35.105732 -42.026378 87.581782 3.312332 5.526437 -14.109637 -1.298646 -2.989047 1.710300 -7.180323 -2.794232 13.473867 66.540817 -71.883261 -103.220733 3.159650 8.721353 6.301325 -0.441955 -51.646568 -5.028116 178.907218 83.707793 -169.051096 -29.419996 -1.801543 -3.514612 -0.155956 -11.735514 1.545000 -13.631789 -53.045532 20.680889 -74.390353 65.727083 -79.306641 30.998551 7.398394 15.720634 -0.190953 -0.513216 -0.085348
-166.807859 49.163873 17.489073 174.809383 -33.493618 -4.044612 0.199620 18.857536 2.156570 -0.007832 2.211883 0.229710 -0.008200 3.650737 0.379253 0.147338 16.419039 1.731461 2.401970 20.373355 0.514184 4.195911 2.116165 0.228513 -2.517050 -1.890210 -1.387019 5.754987 -9.470717 -13.766040 -35.158351 -42.059835 87.579598 3.345927 5.553111 -14.030119 -1.310408 -2.973753 1.708131 -7.226137 -2.884562 13.491192 66.517150 -71.902494 -103.173691 3.141248 8.769529 6.293126 -0.469462 -51.603158 -5.037331 178.795072 83.698596 -169.157607 -29.386312 -1.823993 -3.556346 -0.108311 -11.741312 1.547319 -13.599886 -53.009736 20.655769 -74.388100 65.716361 -79.317459 31.010463 7.396244 15.742516 -0.206453 -0.518017 -0.091386
